<svg enable-background="new 0 0 277.505 59.001" height="59.001" viewBox="0 0 277.505 59.001" width="277.505" xmlns="http://www.w3.org/2000/svg"><g clip-rule="evenodd" fill-rule="evenodd"><path d="m0 58.993 58.965.009-.008-58.906-58.863-.096zm8.435-27.438c-.075 2.618.384 8.859-.28 10.923-.399.039-1.167.138-1.552.116-1.826-.104-.815.055-1.33-.473l-.067-22.798 3.012.05.02 9.397 18.532.002.029-9.433 5.88-.001 10.48 20.811 10.765-20.784 2.851-.046c-.59 2.22-7.413 15.193-9.342 19.016-2.016 3.995-.728 4.122-5.719 4.104-2.528-1.16-8.782-19.225-11.912-22.101l-.042 22.111-2.76.005-.238-10.994z" fill="#535353"/><path d="m274.463 44.412c-.014 4.382-5.372 4.988-9.633 4.988-4.745 0-7.378-1.353-10.773-3.019l-1.513 1.873c5.385 2.575 8.529 4.037 15.942 3.237 5.204-.563 11.428-4.331 8.066-10.11-2.312-3.975-11.195-3.095-16.016-3.801-6.941-1.016-6.713-7.419 3.945-7.419 9.663 0 8.969 4.55 10.891.232-4.439-1.822-7.324-2.847-13.334-2.391-4.517.343-8.961 2.092-8.862 6.634.212 9.686 21.315 1.78 21.287 9.776m-157.097 6.603 2.307.13.124-20.043 18.883 19.923 3.225.101-.018-22.583-2.398-.006-.007 20.035c-1.044-.615-9.097-9.145-10.331-10.609-1.675-1.986-3.466-3.495-5.057-5.375-2.13-2.516-2.173-4.113-6.615-4.046zm52.342-22.488c-.335 2.498-.408 15.5.223 17.291 2.584 7.336 21.306 7.975 23.724-.289.492-1.684.466-14.706.175-16.999l-2.216-.003c-1.245 11.233 4.472 20.708-9.841 20.677-12.957-.027-9.521-6.851-9.847-20.677zm-93.587 22.608c3.132.006 1.87.216 4.82-5.401 1.648-3.137 8.223-15.496 8.632-17.208l-2.563.008-10.368 20.34c-4.142-6.433-6.932-13.914-10.591-20.345l-2.589.045 8.755 17.292c.535 1.035 1.011 1.964 1.517 2.997.79 1.614.623 2.195 2.387 2.272zm88.269-42.519.008 11.729c2.977-.019 8.422.313 10.995-.081 3.705-.568 4.424-4.846.698-6.308.707-.822.838-.624 1.386-1.32 1.399-1.78.474-4.695-2.322-5.085-2.798-.391-7.666.001-10.763-.1zm1.159-.002 9.853.114c1.912 1.201 1.873 2.944.002 4.461l-9.854.063v-4.638zm22.13 4.172-.006 1.165c3.128.009 13.22 1.674 10.845-4-.781-1.868-4.379-1.336-7.37-1.334l-3.468.004zm-.348 7.546c.738-1.047.35-3.836.35-5.232 9.021-.003 6.353-.658 10.325 4.403.683.87.217.964 1.984.729-.319-.256-3.038-4.208-3.547-5.013 1.697-.947 3.777-.733 3.608-4.121-.245-4.888-6.236-3.604-13.538-3.622.001 2.217.001 4.458.001 6.7l.006 5.21c.363 1.418-.424.571.811.946zm-12.288-5.747c.78.392 1.74.531 1.74 1.955 0 1.555-.695 2-1.409 2.434-1.185.833-8.005.728-9.797.275-.396-1.479-.396-3.452 0-4.932 2.056-.03 8.205-.558 9.466.268zm-83.111-7.051c-9.516 3.272-4.482 15.672 5.333 12.823 3.359-.975 6.364-4.297 4.595-8.998-1.098-2.922-5.429-5.373-9.928-3.825zm127.025 12.845c.529-1.277.302-2.246.301-5.508 0-2.003 0-4.006 0-6.008.927.487 7.239 7.634 8.73 9.136 1.459 1.47 1.003 2.335 3.741 2.347l.014-10.688c0-1.621.352-1.565-.622-2.146-1.123.662-.573 1.89-.573 5.273 0 2.029.05 4.063-.039 6.088-1.54-.928-6.7-7.334-8.598-9.042-1.771-1.593-1.002-2.363-3.818-2.32l-.022 11.57c.295 1.244-.142.773.886 1.298zm-64.171-11.756c-.768 1.396-6.486 6.801-8.299 8.5-1.155 1.083-2.316 1.465-2.142 3.2l12.776.011c-.049-1.832.491-.579-.719-1.031l-10.402-.057c1.351-2.026 3.768-3.98 5.432-5.512 1.063-.977 1.839-1.694 2.902-2.672 1.126-1.036 2.316-1.573 2.402-3.552l-12.326-.015c.234 1.692-.981 1.127 4.692 1.116 1.895-.004 3.789.012 5.684.012zm-88.397 11.717.261-6.231 11.212.004c-.001 3.711-.547 5.705.69 6.26.731-.784.456-.395.457-3.069l-.001-7.646c-.002-2.246.552-1.978-1.145-2.198l-.048 5.518-10.989-.002c-.361-2.2-.063-3.785-.166-4.366-.279-1.57.358-.53-.618-1.149-1.197.923-.553 8.337-.587 10.212-.066 3.611.044 2.539.934 2.667zm196.574.08c1.234-2.998-2.311-3.006 4.647-7.401l5.211 6.037c.892.967.87 1.269 2.313 1.254-.307-.832-2.4-2.955-3.163-3.887l-3.441-4.456c1.499-.887 4.514-3.096 5.642-4.457-2.095-.009-3.007 1.377-5.65 3.417-1.724 1.331-3.455 2.869-5.3 3.937l.028-5.943c-.287-2.396.406-.927-.853-1.457l-.195.551c-.317 1.518-.12 7.663-.162 9.655-.04 1.925-.435 2.236.923 2.75zm-9.015-2.312c-1.921-1.209-2.372 2.492-8.222 1.333-2.519-.5-4.748-2.671-4.723-5.536.045-5.155 5.56-6.6 9.519-5.224.201.07.738.292.967.421 1.978 1.125.755 1.427 2.563.899-2.659-4.686-14.298-3.933-14.267 3.825.034 7.979 11.251 8.504 14.163 4.282zm-128.726-9.84c1.176.838 4.457.351 6.167.343-.239 2.033-.503 10.547.336 11.77 1.06-.452.809-.098.809-1.687l-.097-10.033c1.757-.063 4.938.426 6.151-.393-.445-1.33-.763-.762-4.778-.769l-6.603.003c-2.582.001-1.335-.332-1.985.766zm-14.825 1.39.05 10.675 10.966.009c-.458-1.549 1.681-1.053-5.321-1.082l-4.41.015-.135-11.806c-1.621.305-1.15.051-1.15 2.189zm98.134 10.71c1.407-.516.803-1.942.803-5.844 0-2.331.004-4.653.029-6.983h-1.175c0 2.42-.544 11.351.343 12.827zm-116.037-11.857c-7.958 2.326-4.202 13.536 4.665 10.687 7.305-2.348 3.822-13.167-4.665-10.687zm75.417 22.346-.125-2.33-21.848-.037c-1.723.017-2.167-.221-2.161 1.325v1.042l10.876.011.002 20.268 2.405-.052-.008-20.227zm50.117-2.07c-.084-.041-.188-.101-.252-.12-1.707-.517-16.882-.246-18.188-.147l.144 22.635 2.205-.021.034-9.024 12.13-.059c1.326 1.662 2.658 3.395 4.081 5.221 3.556 4.562 2.192 3.913 5.74 3.844l-6.6-9.11c10.047-1.18 7.426-13.618.706-13.219zm26.263 9.432c-.447-.293.205-.233-.995-.357-.38-.039-1.312.009-1.746.013l-10.312.002v-6.963l18.932-.137-.098-2.245-21.489.01-.016 22.595h22.483l-.021-2.271-20.018-.047.08-8.511 13.238-.004zm-136.924.022c-.46-.301.147-.239-1-.37-.387-.045-1.308 0-1.746.003-1.158.01-2.319.003-3.478.003-2.277 0-4.555 0-6.833 0v-6.963l18.897-.07-.005-2.313h-21.442l-.086 22.605 22.45.001-.001-2.272-19.946-.002-.099-8.554 13.311.009zm94.571 1.406.011-8.769c3.925-.065 7.867-.01 11.796-.025 4.04-.018 7.432.066 7.531 4.228.107 4.454-3.104 4.609-7.185 4.592-4.047-.018-8.108.044-12.153-.026z" fill="#fff"/></g></svg>