<svg enable-background="new 0 0 233.082 95.601" height="95.601" viewBox="0 0 233.082 95.601" width="233.082" xmlns="http://www.w3.org/2000/svg"><g clip-rule="evenodd" fill-rule="evenodd"><path d="m26.408 3.728c1.239 3.417 2.759 7.132 2.232 11.512-1.633 13.572-17.192 16.546-25.088 10.447l.292 69.911 22.583.003.155-32.12c2.675-.991 13.098-.082 17.033-.37 25.642-1.877 36.323-30.852 19.751-49.605-9.82-11.113-23.967-9.797-36.958-9.778m-13.194 22.017c13.688-.652 17.509-18.811 4.674-24.719-5.43-2.499-11.7-.041-14.503 3.179-7.568 8.691-1.643 21.485 9.829 21.54zm13.219-.979 12.116-.008c6.036 0 10.434 3.942 10.267 9.315-.342 11.019-12.599 9.066-22.401 9.054z" fill="#535353"/><path d="m103.425 70.154c1.302.794 1.673 1.43 3.845 1.461 5.532.079 6.021-4.183 6.014-8.661-.007-5.174-1.423-9.023-6.716-8.409-1.742.203-2.23.939-3.311 1.367-.099-1.697.357-1.16-1.486-1.295-.563-.041-1.825.053-2.551.053l.039 22.947c1.466 0 2.924.136 4.158-.239zm14.377-13.447c.527 1.253.022.397.973 1.35.459.459.811.722 1.331 1.146 2.576-1.262 6.47-2.657 6.481 2.239-2.305.253-4.677-.318-6.734.554-1.785.756-3.09 2.424-2.947 4.772.141 2.293 1.175 3.729 2.98 4.394 2.285.842 4.467.557 6.12-.567.076.018.172.029.199.126l.588.389c1.057.566 2.072.448 3.854.305.524-2.967.545-12.68-.849-14.672-1.07-1.531-3.33-2.204-5.868-2.256-2.314-.049-4.743.272-6.128 2.22zm4.375 7.857 4.42-.173c-.003 2.632-.367 3.945-3.362 3.778-2.532-.141-3.112-2.276-1.058-3.605zm110.213-17.921c-.322-1.191-1.308-1.765-2.268-2.489-.078.042-.19.031-.225.142-.225.715-7.139 3.449-7.254-2.306l10.437-.113c.031-4.989-.985-8.355-4.992-9.554-4.515-1.351-8.012 1.098-9.121 4.559-1.378 4.297-.188 9.358 2.564 11.062 3.334 2.063 8.857 1.362 10.859-1.301zm-9.791-7.748c.489-4.418 5.57-4.853 6.361.024zm-56.525 22.67c0-4.346 4.964-4.271 5.487-.709.447 3.046-.229 7.311.137 10.596l4.052-.054c.309-2.497.283-11.536-.361-13.41-1.27-3.687-5.99-4.638-9.124-2.125-.739-1.11-.054-1.492-4.417-1.102l-.026 16.646 4.232.055zm-12.064-15.163-2.352-2.171c-1.39.578-2.545 1.679-4.739 1.266-1.814-.342-2.936-1.602-2.801-3.647l10.438.04c-.096-4.942-1.046-8.471-5.134-9.601-10.354-2.861-12.203 12.111-6.156 15.864 1.472.913 4.037 1.223 6.286.829 2.6-.453 3.102-1.343 4.458-2.58zm-6.486-10.882c2.056.002 2.56 1.474 2.892 3.502l-2.197.024-2.083-.002-2.217-.157c.755-2.164.687-3.37 3.605-3.367zm43.519 31.16c-.516.121-7.466 4.238-7.865-2.29l10.497-.065c0-2.645.042-4.905-1.414-6.887-3.871-5.267-13.261-3.509-13.261 5.169 0 10.915 10.004 10.485 14.088 6.495zm-1.578-5.176-6.298.025c.436-4.995 6.202-4.654 6.298-.025zm-81.868-12.576 4.056.015c1.029-5.945-1.674-12.679 2.573-13.112 3.176-.323 3.177 2.182 3.165 4.908-.012 2.682.018 5.364-.031 8.045l4.224.157c-.007-2.635.297-11.566-.427-13.436-1.34-3.461-5.397-4.678-9.032-2.238l-.313-.459c-.041-.037-.123-.151-.177-.192-.051-.039-.137-.12-.198-.156-.775-.458-2.186-.248-3.711-.239zm50.312.064 4.043-.061c1.022-5.552-1.719-12.724 2.599-13.095 4.349-.375 3.121 6.156 3.079 13.013l4.276.092c.005-3.276.456-10.896-.426-13.367-1.198-3.361-5.516-4.603-9.033-2.316-.059-.074-.121-.299-.15-.237l-1.574-.852c-.658-.053-1.915.034-2.651.034zm29.3-14.496c0 6.31-1.488 19.145 9.93 13.145.05 1.227-.128.629.36 1.34l3.591-.072.112-16.642-4.137-.032c-.259 3.589 1.663 12.878-2.703 13.082-3.067.143-2.902-2.76-2.887-5.268.015-2.31.183-5.573-.086-7.773-3.805-.339-4.18-.752-4.18 2.22zm34.369 24.452c.639-.994 1.443-1.336 1.936-2.588-1.637-1.602-4.719-2.182-7.617-1.779-6.232.863-6.752 8.238-1.951 9.637 2.728.794 6.63-.45 5.936 2.9-2.628 1.955-5.192.521-7.196-.532l-2.582 2.615c1.644 2.017 3.781 2.481 7.189 2.414 8.389-.166 8.448-7.938 4.243-9.822-2.684-1.202-6.873.384-6.557-2.991 2.403-1.77 4.091-.334 6.599.146zm-91.87-10.086 3.023.064 6.253-16.651-4.432-.046-3.187 9.866-3.531-9.874-4.396.005c.944 2.605 5.326 15.127 6.27 16.636zm19.858 9.234c1.816.704 1.171-.514 1.785 1.041 0 7.369-1.617 12.977 7.147 12.271l-.084-3.368-2.761-.519-.018-9.089 2.858-.183.038-2.991-2.805-.162c-.165-1.038-.082-1.549-.099-2.558-.008-.494-.009-.874-.097-1.358-.246-1.357-.009-.354-.301-.948l-3.825.048-.104 4.819-1.806.106zm27.343-25.682c-.8.381.691-.341-.681.202-.065.025-.177.065-.248.096-.077.032-.188.084-.262.117l-.526 2.709 1.748.542c-.007 2.428-.287 7.84.238 9.729.816 2.931 3.599 3.114 6.924 3.111l-.002-3.538c-1.824-.005-1.541.108-2.774-.503l-.192-8.992 2.947-.011.031-3.231-2.831-.002-.158-4.765-4.204-.11zm-30.534 23.59c-2.578-2.342-5.625-1.719-7.874-.061-.023-.063-.204-.598-.22-.627-.337-.666-.006-.175-.475-.646l-3.604-.007c-.053 5.322-.377 11.686.238 16.807l3.825-.036c.862-4.84-1.137-11.387 1.527-12.787 1.499-.787 2.595-.035 3.593.486zm59.8 3.072c1.043-.762 2.373-2.013 3.006-3.063-2.308-2.703-5.266-1.382-8-.105-.12-1.945.45-1.105-4.135-1.295l-.002 16.843 4.166.014c-.001-9.638-1.396-14.773 4.965-12.394zm-1.383-10.171 4.054.045c.445-2.492.141-6.573.16-9.267.036-4.829 2.217-3.966 5.291-3.032l1.992-2.104c.681-.831.323-.192.65-1.094-2.024-1.545-5.866-2.376-7.563.078l-.771-1.3-3.688-.016zm-105.563.034 4.053-.004.121-16.715-4.003-.011zm-.067-19.857c1.279.482 2.918.261 4.325.258l-.078-3.405-4.222.039zm5.672 29.613c5.079-2.965 5.189 7.558 2.85 8.852-4.793 2.649-5.762-7.151-2.85-8.852z" fill="#fff"/></g></svg>