<svg enable-background="new 0 0 234.458 43.533" height="43.533" viewBox="0 0 234.458 43.533" width="234.458" xmlns="http://www.w3.org/2000/svg"><path d="m137.965 29.296v11.099h2.517c.941 0 1.619-.055 2.037-.16.551-.137 1.003-.371 1.361-.698.363-.328.656-.867.884-1.616.229-.749.343-1.775.343-3.07 0-1.296-.113-2.288-.343-2.981-.228-.695-.547-1.233-.957-1.624-.409-.387-.929-.652-1.561-.788-.469-.105-1.394-.16-2.767-.16h-1.514zm-3.396-2.834h6.174c1.394 0 2.455.105 3.185.32.979.289 1.822.804 2.521 1.546.702.737 1.232 1.643 1.6 2.715.362 1.071.547 2.394.547 3.962 0 1.382-.173 2.568-.516 3.567-.417 1.221-1.015 2.208-1.791 2.961-.585.574-1.378 1.02-2.373 1.34-.746.237-1.74.354-2.989.354h-6.357v-16.765zm-16.91 16.766v-16.766h3.286l6.899 11.236v-11.236h3.138v16.766h-3.391l-6.795-11.021v11.021zm-16.91-16.766h3.396v9.086c0 1.444.042 2.376.125 2.802.144.687.484 1.24 1.022 1.654.542.418 1.28.624 2.217.624.948 0 1.667-.194 2.15-.589.484-.394.773-.874.87-1.448.098-.573.149-1.521.149-2.848v-9.281h3.395v8.816c0 2.014-.089 3.438-.273 4.27-.183.831-.519 1.533-1.011 2.107-.488.573-1.144 1.026-1.962 1.366-.823.339-1.894.511-3.216.511-1.597 0-2.806-.183-3.629-.555-.824-.371-1.476-.85-1.955-1.444-.48-.593-.792-1.209-.944-1.861-.223-.959-.333-2.38-.333-4.257v-8.953zm-14.303 16.766v-16.766h11.521v2.834h-8.125v3.98h7.024v2.833h-7.024v7.118h-3.396zm134.385-31.59 3.301-.328c.199 1.104.598 1.911 1.202 2.431.604.519 1.421.776 2.447.776 1.085 0 1.904-.23 2.454-.69.551-.461.828-1 .828-1.616 0-.398-.117-.734-.348-1.015-.231-.277-.637-.519-1.214-.722-.394-.141-1.292-.382-2.697-.734-1.807-.453-3.074-1.006-3.805-1.666-1.026-.925-1.538-2.053-1.538-3.384 0-.854.243-1.658.722-2.404.485-.745 1.18-1.312 2.089-1.702.91-.389 2.002-.584 3.29-.584 2.096 0 3.677.464 4.734 1.397 1.062.933 1.615 2.173 1.67 3.731l-3.395.117c-.146-.867-.453-1.488-.926-1.866-.472-.379-1.182-.57-2.126-.57-.976 0-1.74.202-2.291.608-.355.262-.534.609-.534 1.046 0 .397.167.737.504 1.018.424.363 1.458.738 3.102 1.128 1.643.386 2.857.792 3.641 1.206.789.418 1.405.983 1.851 1.705.444.722.667 1.612.667 2.669 0 .961-.266 1.862-.8 2.701-.535.839-1.287 1.463-2.264 1.869-.976.41-2.193.613-3.648.613-2.119 0-3.747-.488-4.883-1.468-1.135-.972-1.81-2.397-2.033-4.266zm-12.626-4.238h2.505c1.624 0 2.635-.07 3.04-.208.403-.136.723-.375.949-.71.23-.335.343-.756.343-1.259 0-.566-.152-1.019-.452-1.371-.301-.347-.726-.565-1.271-.655-.278-.04-1.102-.059-2.471-.059h-2.643zm-3.395 9.67v-16.765h7.131c1.791 0 3.095.152 3.905.453.816.3 1.465.834 1.952 1.604.487.773.733 1.65.733 2.642 0 1.261-.367 2.299-1.104 3.119-.738.818-1.839 1.334-3.307 1.548.73.426 1.331.895 1.804 1.406.476.511 1.116 1.42 1.92 2.724l2.045 3.27h-4.047l-2.428-3.661c-.87-1.299-1.468-2.119-1.791-2.458-.32-.336-.659-.571-1.02-.695-.361-.125-.932-.188-1.712-.188h-.688v7.001zm-15.619 0v-16.765h12.41v2.833h-9.015v3.723h8.383v2.833h-8.383v4.543h9.343v2.833zm-13.514-13.932v11.098h2.517c.941 0 1.62-.055 2.037-.16.551-.137 1.003-.371 1.362-.699.363-.328.655-.867.883-1.616.229-.75.343-1.776.343-3.071 0-1.296-.113-2.287-.343-2.981-.228-.695-.547-1.233-.957-1.624-.409-.387-.928-.652-1.561-.788-.469-.105-1.393-.16-2.767-.16h-1.514zm-3.396-2.833h6.174c1.394 0 2.455.105 3.185.319.979.29 1.823.804 2.521 1.546.703.737 1.232 1.643 1.601 2.715.362 1.071.546 2.393.546 3.962 0 1.382-.172 2.568-.516 3.567-.417 1.221-1.015 2.208-1.791 2.961-.585.574-1.378 1.02-2.373 1.34-.745.237-1.74.354-2.989.354h-6.357v-16.764zm-16.91 16.765v-16.765h3.286l6.899 11.235v-11.235h3.139v16.765h-3.392l-6.793-11.021v11.021zm-16.91-16.765h3.396v9.085c0 1.444.042 2.375.124 2.801.144.687.483 1.241 1.022 1.655.542.418 1.28.625 2.217.625.948 0 1.667-.195 2.15-.589s.773-.874.87-1.448c.098-.574.148-1.521.148-2.848v-9.28h3.396v8.816c0 2.014-.09 3.438-.273 4.269s-.519 1.533-1.011 2.107c-.488.574-1.144 1.026-1.963 1.366-.823.34-1.894.511-3.216.511-1.596 0-2.806-.183-3.629-.555-.824-.371-1.476-.85-1.955-1.444-.48-.593-.792-1.209-.944-1.861-.223-.959-.333-2.38-.333-4.257v-8.953zm-15.427 8.37c0 1.901.441 3.341 1.319 4.325.878.979 1.994 1.471 3.344 1.471 1.355 0 2.463-.488 3.333-1.459.867-.977 1.301-2.436 1.301-4.383 0-1.924-.422-3.36-1.27-4.304-.842-.949-1.962-1.421-3.364-1.421-1.396 0-2.524.479-3.379 1.436-.854.96-1.284 2.404-1.284 4.335zm-3.488.113c0-1.709.257-3.146.768-4.308.38-.854.902-1.623 1.562-2.302s1.382-1.182 2.166-1.515c1.046-.44 2.251-.663 3.617-.663 2.474 0 4.449.769 5.936 2.302 1.483 1.538 2.225 3.673 2.225 6.408 0 2.712-.738 4.836-2.208 6.365-1.472 1.535-3.443 2.299-5.905 2.299-2.494 0-4.48-.762-5.951-2.288-1.473-1.521-2.21-3.621-2.21-6.298zm-13.601 8.282v-16.765h11.521v2.833h-8.125v3.98h7.024v2.833h-7.024v7.119zm-20.715 0v-16.625h3.396v13.791h8.406v2.833h-11.802zm-8.106-6.651-2.33-6.205-2.262 6.205zm6.205 6.651h-3.657l-1.448-3.816h-6.724l-1.393 3.816h-3.591l6.509-16.765h3.587zm-28.617-7.33v4.496h3.137c1.218 0 1.995-.035 2.322-.102.503-.093.913-.316 1.229-.67.316-.359.476-.832.476-1.429 0-.507-.121-.933-.366-1.283-.242-.352-.598-.609-1.058-.769-.461-.161-1.464-.243-3.005-.243zm0-6.649v3.863h2.216c1.315 0 2.135-.02 2.455-.059.578-.067 1.035-.265 1.366-.597.333-.332.496-.765.496-1.304 0-.519-.145-.937-.43-1.261s-.71-.519-1.272-.584c-.336-.04-1.3-.059-2.888-.059h-1.943zm-3.396-2.786h6.705c1.331 0 2.318.054 2.97.164.656.113 1.238.343 1.753.69.515.351.944.816 1.288 1.397.344.583.515 1.237.515 1.959 0 .781-.211 1.502-.633 2.154-.421.656-.994 1.144-1.716 1.471 1.018.301 1.799.808 2.349 1.526.546.718.82 1.562.82 2.533 0 .766-.175 1.506-.531 2.229-.354.722-.839 1.299-1.456 1.732-.612.429-1.369.695-2.271.797-.561.059-1.923.097-4.082.113h-5.71v-16.765zm-15.426 8.37c0 1.901.44 3.341 1.319 4.325.878.979 1.994 1.471 3.344 1.471 1.354 0 2.463-.488 3.333-1.459.867-.977 1.3-2.436 1.3-4.383 0-1.924-.422-3.36-1.269-4.304-.842-.949-1.963-1.421-3.364-1.421-1.397 0-2.524.479-3.379 1.436-.855.96-1.284 2.404-1.284 4.335zm-3.489.113c0-1.709.257-3.146.768-4.308.379-.854.902-1.623 1.561-2.302.66-.679 1.382-1.182 2.166-1.515 1.046-.44 2.252-.663 3.618-.663 2.474 0 4.449.769 5.936 2.302 1.483 1.538 2.225 3.673 2.225 6.408 0 2.712-.738 4.836-2.209 6.365-1.471 1.535-3.442 2.299-5.904 2.299-2.494 0-4.481-.762-5.952-2.288-1.472-1.521-2.209-3.621-2.209-6.298zm-13.508 8.282v-16.625h3.396v13.791h8.406v2.833h-11.802zm-10.509-6.158v-2.834h7.282v6.689c-.706.69-1.733 1.295-3.079 1.822-1.343.523-2.705.785-4.087.785-1.751 0-3.278-.368-4.581-1.104-1.299-.738-2.279-1.795-2.935-3.165-.656-1.37-.984-2.864-.984-4.476 0-1.749.368-3.301 1.097-4.665.734-1.357 1.803-2.403 3.212-3.129 1.077-.558 2.412-.835 4.012-.835 2.08 0 3.707.437 4.878 1.311 1.167.879 1.92 2.084 2.255 3.63l-3.372.631c-.234-.823-.679-1.475-1.331-1.955-.647-.476-1.46-.713-2.435-.713-1.475 0-2.649.467-3.519 1.409-.87.94-1.307 2.333-1.307 4.179 0 1.994.441 3.489 1.323 4.484.886.995 2.042 1.494 3.474 1.494.706 0 1.416-.141 2.126-.417.714-.277 1.324-.617 1.835-1.015v-2.126z" fill="#fff"/></svg>