<svg enable-background="new 0 0 317.452 50.892" height="50.892" viewBox="0 0 317.452 50.892" width="317.452" xmlns="http://www.w3.org/2000/svg"><g clip-rule="evenodd" fill-rule="evenodd"><path d="m224.107 39.448c-.494.898-.607 2.148-1.797 3.463-2.766 3.055-7.767 3.68-11.792 2.606-2.813-.75-4.776-2.488-5.943-4.489-1.083-1.856-2.184-5.527-1.936-8.229l24.831-.001c.222-9.213-3.716-15.592-12.288-16.437-8.73-.86-14.479 5.238-15.656 12.663-1.492 9.419 2.534 16.609 9.409 18.868 5.509 1.81 12.501.718 16.127-3.714.73-.894 2.052-3.157 2.156-4.722zm-130.618.015c-.443 2.727-2.581 4.715-4.783 5.636-2.501 1.046-6.067 1.133-8.801.39-2.75-.749-4.667-2.493-5.843-4.462-1.113-1.861-2.144-5.531-1.952-8.226l24.855-.005c.296-9.132-3.771-15.546-12.181-16.422-8.689-.904-14.49 5.079-15.734 12.44-.728 4.308-.209 8.855 1.527 12.313 5.685 11.329 24.456 9.369 26.143-1.668zm-21.25-9.264c.083-3.244 1.569-6.149 3.172-7.871 1.66-1.784 4.03-3.226 7.589-3.295 6.958-.137 10.392 4.369 10.646 11.168zm80.311-13.405c-.133 4.94-.009 10.059-.009 15.019 0 4.969-.399 9.293 2.065 12.928 3.227 4.761 11.794 5.139 16.481 1.728 2.447-1.78 2.391-2.603 3.499-3.972l.006 5.723 3.206-.007-.01-31.456-3.186.038c-.154 6.421.138 12.935-.012 19.354-.128 5.515-4.108 9.406-9.489 9.74-6.833.425-9.366-3.396-9.358-9.881.008-6.339.156-12.89-.009-19.243zm-47.046 31.432c-.012-6.359-.196-13.058.005-19.378.178-5.574 4.125-9.314 9.586-9.725 6.702-.503 9.496 3.423 9.484 9.85-.011 6.394 0 12.787-.003 19.238l3.208.012c-.007-5.063.001-10.128-.001-15.191-.002-4.835.226-9.437-2.289-12.878-4.515-6.179-16.622-4.721-19.988 2.545l-.019-5.939-3.182.012v31.449zm125.89-9.359c.259 7.502 7.523 11.228 15.521 9.584 6.082-1.25 8.663-6.357 7.312-11.487-.49-1.86-1.39-2.88-2.604-3.766-4.878-3.561-17.453-1.483-16.182-9.479.597-3.753 4.845-4.874 8.238-4.654 4.317.279 5.932 2.101 6.941 5.806l3.021-.014c.028-1.53-.973-3.688-1.689-4.707-.813-1.155-2.016-2.111-3.547-2.81-5.687-2.598-16.307-.563-16 7.845.15 4.151 2.376 5.937 5.699 7.085 4.95 1.71 12.096 1.218 13.177 6.021 1.417 6.292-5.03 8.888-10.958 7.412-3.468-.862-5.24-3.004-5.858-6.86zm-99.875-19.378 4.596.053c.019 6.932-.024 13.865.005 20.796.033 7.897 5.894 9.51 11.865 7.671l.004-2.719c-2.684.512-5.375 1.354-7.278-.58-1.596-1.621-1.392-4.749-1.392-7.483 0-5.889.03-11.786-.001-17.728l8.226-.006-.013-2.73-8.205-.039-.039-7.114-3.161.009-.044 7.132-4.566.008zm55.421 28.647c-.004-3.275.001-6.552.001-9.827 0-8.906-1.602-18.211 10.622-18.922l-.006-3.035c-3.745.22-6.857 1.401-8.964 4.195-.193.257-1.624 2.536-1.657 2.553l-.019-6.34-3.182.002-.002 31.459c.836.01 2.48.129 3.207-.085zm-144.515-31.37-3.421-.005c.101.699 2.539 6.756 3.011 8.019.964 2.578 1.984 5.223 3.003 7.82l4.551 11.821c.224.561 1.215 3.682 1.646 3.806l3.787-.001c.391-.101.653-1.206.896-1.844.251-.658.504-1.313.747-1.971.473-1.284.994-2.619 1.477-3.931.973-2.64 1.993-5.231 2.959-7.865.557-1.52 5.693-14.74 5.902-15.857l-3.231.005-10.67 28.049zm160.32 13.429c.27-5.852 4.307-11.038 10.771-11.161 7.133-.135 10.196 4.331 10.65 11.165z" fill="#fff"/><path d="m284.691 27.755c.445 2.742 3.156 5.13 6.568 4.582 2.686-.431 5.18-3.152 4.582-6.568-.504-2.88-3.224-5.127-6.546-4.589-2.777.45-5.164 3.132-4.604 6.575m-10.792 4.735c.497-2.938-1.722-5.53-4.277-5.914-3.176-.477-5.66 1.716-6.036 4.31-.991 6.824 9.131 8.587 10.313 1.604zm10.478-32.384c-6.861 1.374-4.886 11.379 1.828 10.266 2.666-.442 4.764-2.974 4.222-6.084-.44-2.528-2.902-4.812-6.05-4.182zm-2.208 19.124c.521-3.02-1.806-5.563-4.306-5.912-3.161-.439-5.638 1.753-6.004 4.311-.977 6.819 9.104 8.595 10.31 1.601zm26.479 16.779c.665-3.086-1.687-5.634-4.108-6.097-3.151-.602-5.582 1.553-6.127 4.007-.715 3.22 1.61 5.745 4.002 6.23 3.34.678 5.682-1.583 6.233-4.14zm-30.321 4.599c.269 1.812 2.05 3.418 4.277 3.067 4.756-.749 3.673-8.055-1.154-7.342-1.822.27-3.464 1.975-3.123 4.275zm19.615-30.742c-5.01 1.06-3.449 8.095 1.263 7.286 1.894-.325 3.4-2.186 2.988-4.36-.33-1.745-2.123-3.376-4.251-2.926zm-5.235 39.132c.806 3.122 5.816 2.18 5.076-1.334-.679-3.225-5.998-2.24-5.076 1.334zm-267.823-9.552c-.614 1.553-.793 2.342-1.79 3.474-2.742 3.117-7.993 3.677-11.816 2.584-2.975-.851-4.604-2.374-5.91-4.489-1.062-1.721-2.207-5.603-1.939-8.224l24.84-.004c.597-8.816-4.007-15.734-12.212-16.413-8.937-.739-14.597 5.159-15.753 12.807-3.107 20.552 18.474 23.756 25.555 15.014.662-.817 2.149-3.313 2.145-4.752zm16.095 5.357c.675-2.661-1.27-4.768-3.278-5.271-2.663-.668-4.837 1.266-5.293 3.256-1.301 5.675 7.111 7.773 8.571 2.015zm-37.402-14.612c-.039-2.988 1.66-6.299 3.137-7.854 5.671-5.969 18.204-4.328 18.228 7.858zm307.221-13.951c-7.716 1.609-4.979 12.485 2.036 11.126 2.781-.539 5.119-3.15 4.524-6.623-.471-2.748-3.261-5.191-6.56-4.503z" fill="#8a8a8a"/></g></svg>